<svg width="709" height="858" viewBox="0 0 709 858" fill="none" xmlns="http://www.w3.org/2000/svg">
<rect y="0.00012207" width="709" height="858" fill="#2563EB"/>
<mask id="mask0_1_34" style="mask-type:alpha" maskUnits="userSpaceOnUse" x="0" y="0" width="709" height="859">
<rect y="0.00012207" width="709" height="858" fill="#0F172A"/>
</mask>
<g mask="url(#mask0_1_34)">
<path opacity="0.1" d="M110.973 5.10434C43.2609 107.951 -86.2929 143.577 -178.172 85.869C-270.051 28.1612 -290.617 -101.752 -222.905 -204.599C-155.193 -307.445 -25.6392 -343.071 66.24 -285.364C158.119 -227.656 178.685 -97.7421 110.973 5.10434Z" stroke="white" stroke-width="7"/>
<path d="M947.5 997.158C947.5 1051.83 916.471 1101.66 865.638 1137.96C814.812 1174.26 744.417 1196.82 666.5 1196.82C588.583 1196.82 518.188 1174.26 467.362 1137.96C416.529 1101.66 385.5 1051.83 385.5 997.158C385.5 942.482 416.529 892.651 467.362 856.352C518.188 820.058 588.583 797.5 666.5 797.5C744.417 797.5 814.812 820.058 865.638 856.352C916.471 892.651 947.5 942.482 947.5 997.158Z" stroke="white" stroke-width="7"/>
</g>
</svg>
